PathFileType	3	(X/Y/Z)	E:\ViconData\BIOM9541 2025\Week 7\Wed1100\Hanif 90 squat 5 Squat 01.trc
DataRate	CameraRate	NumFrames	NumMarkers	Units	OrigDataRate	OrigDataStartFrame	OrigNumFrames
200.0	200.0	10	19	mm	200.0	464	1853	
Frame#	Time	C7			CLAV			RBAK			LASI			RASI			LPSI			RPSI			LTHI			LKNE			LTIB			LANK			LHEE			LTOE			RTHI			RKNE			RTIB			RANK			RHEE			RTOE			
		X1	Y1	Z1	X2	Y2	Z2	X3	Y3	Z3	X4	Y4	Z4	X5	Y5	Z5	X6	Y6	Z6	X7	Y7	Z7	X8	Y8	Z8	X9	Y9	Z9	X10	Y10	Z10	X11	Y11	Z11	X12	Y12	Z12	X13	Y13	Z13	X14	Y14	Z14	X15	Y15	Z15	X16	Y16	Z16	X17	Y17	Z17	X18	Y18	Z18	X19	Y19	Z19	
464	2.315	355.43741	1308.0051	-1226.1035	208.35785	1233.6555	-1219.454	372.76736	1224.1597	-1370.2778	249.56459	872.21796	-1086.3298	244.51248	878.25781	-1350.3381	416.96185	931.64984	-1175.7177	416.55707	927.19604	-1249.1031	256.35223	565.83191	-984.99219	243.50804	423.83893	-980.94153	283.28354	219.82574	-953.88269	307.90665	62.258804	-969.0271	330.97318	47.972214	-1028.005	163.59671	38.834591	-946.88507	292.39838	729.64398	-1418.7125	251.06442	419.64084	-1443.7339	267.48776	332.59641	-1460.3606	303.48016	71.510201	-1435.5972	325.8912	48.566517	-1369.1067	164.95116	40.469067	-1464.6836
465	2.32	355.65958	1308.9648	-1225.9696	208.45329	1234.8302	-1219.2086	373.30225	1225.4733	-1370.6735	248.74402	873.08325	-1086.2834	243.80527	879.37726	-1350.2581	416.20181	932.55164	-1175.6293	416.28799	927.67749	-1249.6671	257.02988	565.8313	-985.69214	245.2345	423.98145	-982.1026	284.20621	219.64424	-954.70715	308.0665	62.277416	-969.15228	330.96802	47.915596	-1028.0297	163.53365	38.855019	-946.94324	292.01498	730.07837	-1418.3864	252.58571	419.88712	-1442.502	268.73581	332.76431	-1459.387	303.57172	71.521919	-1435.5023	325.94669	48.508564	-1369.0765	164.86057	40.46402	-1464.548
466	2.325	355.92023	1309.8303	-1225.8379	208.23495	1236.0114	-1218.5398	373.46231	1226.207	-1370.4884	247.92599	873.96832	-1086.1135	243.11586	880.32159	-1350.1548	415.49661	933.3653	-1175.4592	415.62	928.58093	-1249.5187	257.95166	565.63641	-986.87958	246.83861	423.91885	-983.21259	285.25113	219.8773	-955.34479	308.19907	62.275425	-969.21783	330.99976	47.927902	-1028.0891	163.45125	38.877186	-947.08899	291.65259	730.5285	-1418.1023	254.01532	420.16739	-1441.3109	269.99658	333.07065	-1458.4991	303.61377	71.620476	-1435.4125	326.01273	48.495964	-1369.0104	164.76558	40.512051	-1464.4429
467	2.33	356.15042	1310.6053	-1225.7051	208.37054	1237.0856	-1218.4139	373.24295	1226.3873	-1369.8573	247.16249	874.72101	-1086.1104	242.48038	881.16455	-1350.0544	414.80386	934.07959	-1175.3254	414.48044	929.66229	-1248.626	258.68024	565.57849	-987.70032	248.49701	423.99924	-984.2785	286.00681	219.99667	-955.67914	308.29175	62.30603	-969.26935	331.05939	47.935249	-1028.1838	163.41138	38.84074	-947.15668	291.24438	730.89044	-1417.7556	255.50639	420.35672	-1440.168	271.24365	333.26202	-1457.6934	303.74088	71.641922	-1435.3519	326.06284	48.419579	-1368.9746	164.71324	40.503262	-1464.395
468	2.335	356.42206	1311.1676	-1225.6685	208.52934	1237.9211	-1218.5186	373.50458	1226.9716	-1369.7628	246.35295	875.3623	-1085.9951	241.90172	881.91907	-1349.9657	414.10861	934.77087	-1175.3483	413.78561	930.29669	-1248.4545	259.47754	565.45044	-988.53497	250.02179	423.96567	-985.28625	287.04434	220.25331	-956.26099	308.52686	62.402233	-969.32111	331.07941	47.80368	-1028.2194	163.42618	38.8092	-947.32867	290.85657	731.2392	-1417.4098	256.9436	420.47186	-1439.0336	272.50623	333.3696	-1456.9419	303.87839	71.612358	-1435.3032	326.15536	48.381298	-1369.0768	164.71132	40.431522	-1464.3123
469	2.34	356.686	1311.8164	-1225.5879	208.81685	1238.8116	-1218.6818	373.71622	1227.5681	-1369.5669	245.61882	876.10864	-1085.8645	241.25804	882.63715	-1349.8901	413.44855	935.31354	-1175.1626	413.73233	930.68878	-1249.1188	260.1665	565.37109	-989.23621	251.55827	423.99176	-986.26489	287.75977	219.85184	-957.11267	308.61713	62.352245	-969.38049	331.16452	47.746422	-1028.3196	163.43723	38.75523	-947.41595	290.52676	731.51031	-1417.1807	258.39813	420.5817	-1438.0404	273.66431	333.45367	-1456.1504	304.01044	71.645836	-1435.2281	326.2005	48.27607	-1369.0375	164.72356	40.378399	-1464.2262
470	2.345	356.9007	1312.3928	-1225.4808	208.59882	1239.6163	-1218.7546	374.13519	1228.3981	-1369.9207	244.95097	876.64935	-1085.8325	240.65501	883.24261	-1349.7693	412.77139	935.91266	-1174.8229	412.63794	931.57617	-1248.269	260.96115	565.29523	-989.95074	252.99129	423.91736	-987.16864	288.60068	220.39201	-957.15204	308.77789	62.382423	-969.42645	331.19583	47.743534	-1028.3619	163.43657	38.723255	-947.45691	290.19931	731.71857	-1416.9047	259.73328	420.71979	-1437.0643	274.85175	333.58493	-1455.3807	304.14572	71.674126	-1435.1711	326.25381	48.247742	-1368.9967	164.71768	40.363571	-1464.1815
471	2.35	357.11731	1312.8545	-1225.377	209.42445	1240.4266	-1219.1492	373.88074	1228.3315	-1369.2692	244.23271	877.0498	-1085.7567	240.04324	883.85614	-1349.6771	412.08582	936.4942	-1174.5453	412.3566	931.64722	-1248.7155	261.64487	565.09045	-990.62701	254.39224	423.85522	-988.07184	289.36957	220.56848	-957.33893	308.84323	62.342327	-969.4873	331.24438	47.729877	-1028.4067	163.42513	38.686253	-947.43268	289.81586	731.9917	-1416.5765	261.12094	420.90012	-1436.1298	275.99112	333.81638	-1454.6549	304.27094	71.779541	-1435.0732	326.32217	48.229122	-1368.8945	164.69547	40.408314	-1464.1465
472	2.355	357.33963	1313.3618	-1225.2556	208.99176	1240.9034	-1217.942	374.06421	1228.7925	-1369.08	243.57092	877.51538	-1085.6195	239.44362	884.40924	-1349.5741	411.47186	936.95032	-1174.339	411.32169	932.32953	-1248.0171	262.3956	565.02228	-991.28815	255.74556	423.83905	-988.85516	290.117	220.30434	-958.12781	308.85199	62.29443	-969.59161	331.26538	47.726875	-1028.4164	163.41299	38.655163	-947.38184	289.42627	732.2608	-1416.3135	262.47397	420.97519	-1435.2231	277.15717	333.94427	-1454.0281	304.36511	71.827499	-1434.9939	326.35303	48.233124	-1368.8684	164.66023	40.436596	-1464.1583
473	2.36	357.54373	1313.9023	-1225.099	209.10054	1241.7732	-1218.0106	374.25027	1229.1995	-1368.9401	242.95346	878.05151	-1085.4785	238.85396	884.90839	-1349.4478	410.90527	937.32269	-1174.3146	410.77271	933.03302	-1247.7725	263.02039	564.96063	-991.83783	257.05801	423.80023	-989.65625	290.7955	220.72374	-958.13367	309.01874	62.410248	-969.63599	331.29819	47.68557	-1028.499	163.39017	38.6353	-947.33282	289.13602	732.40607	-1416.1381	263.86569	421.02295	-1434.3713	278.29361	334.035	-1453.412	304.45435	71.822212	-1434.9425	326.36707	48.202564	-1368.9038	164.61389	40.406624	-1464.2106
